# xmcd
#
# Track frame offsets: 
#        150
#        13593
#        26153
#        45878
#        56603
#        74453
#        93953
#        106459
#        124928
#        136600
#        152818
#        163947
#        184234
#
# Disc length: 2666 seconds
#
# Revision: 0
# Processed by: cddbd v1.5.2PL0 Copyright (c) Steve Scherf et al.
# Submitted via: ExactAudioCopy v1.0b4
#
DISCID=ab0a680d
DTITLE=Stackhouse - Tailgatin'
DYEAR=2016
DGENRE=Blues
TTITLE0=Juicy Lucy
TTITLE1=Doghouse
TTITLE2=Cruel Lover
TTITLE3=Anybody Seen Freddy?
TTITLE4=Millionaire In My Time
TTITLE5=My Kinda Woman
TTITLE6=I'm A Stranger Here
TTITLE7=Cool Drink Of Water Blues
TTITLE8=Long Tall Mama
TTITLE9=Joliet Blues
TTITLE10=Three Signs
TTITLE11=You're Playin' On Me
TTITLE12=Tailgatin'
EXTD=
EXTT0=
EXTT1=
EXTT2=
EXTT3=
EXTT4=
EXTT5=
EXTT6=
EXTT7=
EXTT8=
EXTT9=
EXTT10=
EXTT11=
EXTT12=
PLAYORDER=
